<svg xmlns="http://www.w3.org/2000/svg" xmlns:xlink="http://www.w3.org/1999/xlink" version="1.0" x="0px" y="0px" viewBox="0 0 100 125" enable-background="new 0 0 100 100" xml:space="preserve"><path d="M52.643898,45.2454414l1.191658,2.8487968l3.7052078-2.7928848l1.508152,2.923233v2.923233l-1.9363556,3.239727  l-3.4073524,5.2133598l-2.6625366,2.867321l1.9178352,3.4631462l-4.0217018,0.0930786l-4.4686623,2.7184448l-1.3964386,4.7851562  l-2.9605103,7.5036011l-4.0962524,3.3514404l-2.6067352,2.1597824l-4.803793-0.1676254l-3.3887138-2.4950256l-5.6788406-0.5213928  l-0.8750496-2.7556076l2.8115215-5.5113373l6.5726414-7.2056274l3.3700752-1.359169l3.7424831-2.7369728l4.4686584-3.7424812  l3.1280174-3.686573l2.327404-5.2319984l1.9736328-1.7688484l0.7819786-3.8541946l3.6679306-3.1652908L52.643898,45.2454414z   M60.9481163,13.55548l3.7797585,6.8332243l0.1117096-4.431385l2.3646774,1.7688484l0.7819748,4.9341412l4.207962,2.1412563  l3.5190659,0.5213928l2.9790268-2.5135498l2.643898,0.7633381l-1.2660904,5.8651028l-1.5825882,3.89147l-3.9845428-0.1303482  l-1.3964462,2.048069l0.4841232,2.9045944l-0.7633438,1.2660942l-1.9736328,3.6679306l-2.5880966,4.7107201l-4.0403442,2.7742462  l-0.8936844-1.824646l-2.1784172-1.0053978l3.0163078-5.6602058l-1.7129402-3.7424812l-5.6230431-2.69981l0.1489868-2.4391136  l3.7797585-2.327404l0.8750496-5.1016502l-0.2420616-4.2452393l-2.1226158-4.3569489l0.148983-1.135746l-2.4950256-2.6625357  l-4.1148911-5.6602044l-2.1784172-4.4871836l1.9363594-0.5027554l2.8487968,3.5190611l4.058979,1.6571388L60.9481163,13.55548z"/><text x="0" y="115" fill="#000000" font-size="5px" font-weight="bold" font-family="'Helvetica Neue', Helvetica, Arial-Unicode, Arial, Sans-serif">Created by Alexander Skowalsky</text><text x="0" y="120" fill="#000000" font-size="5px" font-weight="bold" font-family="'Helvetica Neue', Helvetica, Arial-Unicode, Arial, Sans-serif">from the Noun Project</text></svg>